HIERARCHY
ROOT Hips
{
	OFFSET 0.00000 0.00000 0.00000
	CHANNELS 6 Xposition Yposition Zposition Zrotation Yrotation Xrotation 
	JOINT LHipJoint
	{
		OFFSET 0 0 0
		CHANNELS 3 Zrotation Yrotation Xrotation
		JOINT LeftUpLeg
		{
			OFFSET 1.26600 -1.82114 0.91038
			CHANNELS 3 Zrotation Yrotation Xrotation
			JOINT LeftLeg
			{
				OFFSET 2.50076 -6.87080 0.00000
				CHANNELS 3 Zrotation Yrotation Xrotation
				JOINT LeftFoot
				{
					OFFSET 2.57364 -7.07102 0.00000
					CHANNELS 3 Zrotation Yrotation Xrotation
					JOINT LeftToeBase
					{
						OFFSET 0.13572 -0.37290 1.97004
						CHANNELS 3 Zrotation Yrotation Xrotation
						End Site
						{
							OFFSET 0.00000 -0.00000 1.01383
						}
					}
				}
			}
		}
	}
	JOINT RHipJoint
	{
		OFFSET 0 0 0
		CHANNELS 3 Zrotation Yrotation Xrotation
		JOINT RightUpLeg
		{
			OFFSET -1.20803 -1.82114 0.91038
			CHANNELS 3 Zrotation Yrotation Xrotation
			JOINT RightLeg
			{
				OFFSET -2.54916 -7.00377 0.00000
				CHANNELS 3 Zrotation Yrotation Xrotation
				JOINT RightFoot
				{
					OFFSET -2.56374 -7.04382 0.00000
					CHANNELS 3 Zrotation Yrotation Xrotation
					JOINT RightToeBase
					{
						OFFSET -0.23520 -0.64621 2.09921
						CHANNELS 3 Zrotation Yrotation Xrotation
						End Site
						{
							OFFSET -0.00000 -0.00000 1.10065
						}
					}
				}
			}
		}
	}
	JOINT LowerBack
	{
		OFFSET 0 0 0
		CHANNELS 3 Zrotation Yrotation Xrotation
		JOINT Spine
		{
			OFFSET 0.05492 2.10797 -0.12074
			CHANNELS 3 Zrotation Yrotation Xrotation
			JOINT Spine1
			{
				OFFSET 0.04577 2.11592 -0.04483
				CHANNELS 3 Zrotation Yrotation Xrotation
				JOINT Neck
				{
					OFFSET 0 0 0
					CHANNELS 3 Zrotation Yrotation Xrotation
					JOINT Neck1
					{
						OFFSET -0.10759 1.80167 0.15770
						CHANNELS 3 Zrotation Yrotation Xrotation
						JOINT Head
						{
							OFFSET 0.09237 1.77509 -0.40848
							CHANNELS 3 Zrotation Yrotation Xrotation
							End Site
							{
								OFFSET 0.03805 1.84093 -0.15754
							}
						}
					}
				}
				JOINT LeftShoulder
				{
					OFFSET 0 0 0
					CHANNELS 3 Zrotation Yrotation Xrotation
					JOINT LeftArm
					{
						OFFSET 3.42372 1.09575 -0.28209
						CHANNELS 3 Zrotation Yrotation Xrotation
						JOINT LeftForeArm
						{
							OFFSET 4.95681 -0.00000 0.00000
							CHANNELS 3 Zrotation Yrotation Xrotation
							JOINT LeftHand
							{
								OFFSET 3.40915 -0.00000 0.00000
								CHANNELS 3 Zrotation Yrotation Xrotation
								JOINT LeftFingerBase
								{
									OFFSET 0 0 0
									CHANNELS 3 Zrotation Yrotation Xrotation
									JOINT LeftHandIndex1
									{
										OFFSET 0.61640 -0.00000 0.00000
										CHANNELS 3 Zrotation Yrotation Xrotation
										End Site
										{
											OFFSET 0.49696 -0.00000 0.00000
										}
									}
								}
								JOINT LThumb
								{
									OFFSET 0 0 0
									CHANNELS 3 Zrotation Yrotation Xrotation
									End Site
									{
										OFFSET 0.50455 -0.00000 0.50455
									}
								}
							}
						}
					}
				}
				JOINT RightShoulder
				{
					OFFSET 0 0 0
					CHANNELS 3 Zrotation Yrotation Xrotation
					JOINT RightArm
					{
						OFFSET -3.24731 1.15872 -0.32221
						CHANNELS 3 Zrotation Yrotation Xrotation
						JOINT RightForeArm
						{
							OFFSET -5.35200 -0.00000 0.00000
							CHANNELS 3 Zrotation Yrotation Xrotation
							JOINT RightHand
							{
								OFFSET -3.43721 -0.00000 -0.00000
								CHANNELS 3 Zrotation Yrotation Xrotation
								JOINT RightFingerBase
								{
									OFFSET 0 0 0
									CHANNELS 3 Zrotation Yrotation Xrotation
									JOINT RightHandIndex1
									{
										OFFSET -0.72009 -0.00000 0.00000
										CHANNELS 3 Zrotation Yrotation Xrotation
										End Site
										{
											OFFSET -0.58056 -0.00000 0.00000
										}
									}
								}
								JOINT RThumb
								{
									OFFSET 0 0 0
									CHANNELS 3 Zrotation Yrotation Xrotation
									End Site
									{
										OFFSET -0.58942 -0.00000 0.58942
									}
								}
							}
						}
					}
				}
			}
		}
	}
}
MOTION
Frames: 14
Frame Time: .0083333
-0.6554 20.4963 -10.2906 -171.1490 3.9850 -181.7500 0.0000 0.0000 0.0000 -5.5110 -5.0212 -36.6840 14.4250 19.2379 73.4982 0.0292 -4.5041 7.4089 0.2558 3.2540 8.9866 0.0000 0.0000 0.0000 32.3615 -3.6372 2.5652 -1.0232 -6.4348 18.0513 -0.3348 7.4734 -10.8153 -2.8254 -10.4069 30.3047 6.6550 0.5376 6.7955 4.2715 1.6935 3.9831 0.5789 1.1575 0.3560 -8.1105 -3.8440 -12.0305 3.0184 0.7539 39.8748 3.4070 1.1625 16.3829 0.0000 -0.0000 0.0000 -90.9117 5.2853 18.6104 14.4212 -23.3336 -2.9929 -0.0000 -0.0000 1.4072 17.9998 22.1271 6.9774 -7.1250 0.0000 -0.0000 -11.2289 52.7811 -2.1720 0.0000 -0.0000 0.0000 86.6434 -0.8786 12.1950 -11.8562 19.5886 -2.0538 0.0000 -0.0000 -6.7254 -22.3813 12.5962 -5.1315 7.1250 -0.0000 -0.0000 3.3802 -16.4096 2.2916
-0.6433 20.4971 -10.3366 -171.0870 4.1392 -181.9120 0.0000 0.0000 0.0000 -5.2448 -4.8015 -37.4650 14.4855 19.2547 73.6818 0.0161 -4.7133 7.2671 0.2526 3.2337 8.9301 0.0000 0.0000 0.0000 32.4372 -3.8855 3.0735 -0.9906 -6.3347 17.7586 -0.3483 7.4874 -10.9966 -2.5555 -9.9382 28.7768 6.7320 0.6139 7.1215 4.2375 1.8351 3.9255 0.4825 1.2227 0.1244 -8.2804 -3.8963 -11.7745 3.2565 0.6563 39.9069 3.5288 1.1455 16.3442 -0.0000 -0.0000 0.0000 -90.9203 5.6377 18.4049 14.3635 -23.2519 -2.9701 -0.0000 -0.0000 1.2948 17.9304 21.8636 6.8710 -7.1250 0.0000 -0.0000 -11.1931 52.5033 -2.0882 -0.0000 -0.0000 0.0000 86.7748 -1.0691 11.5118 -11.9081 19.6666 -2.0713 0.0000 -0.0000 -5.5655 -21.6741 12.3293 -4.8506 7.1250 -0.0000 -0.0000 3.8596 -16.7636 2.5883
-0.6314 20.4918 -10.3931 -171.0310 4.1848 -182.0600 0.0000 0.0000 0.0000 -5.0391 -4.6664 -38.1222 14.5060 19.2604 73.7439 0.0058 -4.9878 7.3094 0.2608 3.2852 9.0739 0.0000 0.0000 0.0000 32.5028 -3.9423 3.5661 -0.9699 -6.2701 17.5700 -0.3566 7.6123 -11.1366 -2.6533 -10.1114 29.3381 6.7412 0.5980 7.1222 4.2425 1.8175 4.0057 0.4856 1.2209 0.2066 -8.2929 -3.8842 -11.6777 3.2335 0.6775 39.8685 3.5201 1.1509 16.2985 0.0000 0.0000 0.0000 -91.0053 5.9014 18.1202 14.2724 -23.1229 -2.9343 -0.0000 -0.0000 1.0312 18.0817 21.4936 6.8217 -7.1250 0.0000 -0.0000 -10.8993 52.1563 -1.9391 0.0000 0.0000 0.0000 86.7735 -1.0173 11.4681 -11.9775 19.7709 -2.0947 0.0000 -0.0000 -5.2474 -21.5317 12.1802 -4.7586 7.1250 -0.0000 -0.0000 3.9530 -16.9358 2.6364
-0.6249 20.4747 -10.4506 -171.0060 4.1025 -182.2650 0.0000 0.0000 0.0000 -4.9104 -4.7185 -38.5656 14.4868 19.2551 73.6859 -0.0097 -5.3991 7.3976 0.2182 3.0074 8.2994 0.0000 0.0000 0.0000 32.5776 -4.0000 4.2676 -0.9155 -6.0965 17.0645 -0.3815 7.3398 -11.3910 -2.5221 -9.8780 28.5826 6.7207 0.4893 7.0792 4.2684 1.6734 4.1387 0.5373 1.1609 0.3610 -8.2236 -3.8479 -11.7985 3.1115 0.7676 39.9132 3.4720 1.1767 16.3460 0.0000 -0.0000 0.0000 -91.2327 6.0968 17.5937 14.1846 -22.9980 -2.8998 -0.0000 -0.0000 0.9593 18.2128 21.2044 6.7868 -7.1250 0.0000 -0.0000 -10.6604 51.8865 -1.8248 0.0000 -0.0000 0.0000 86.6185 -0.7613 11.9958 -11.9111 19.6712 -2.0723 0.0000 -0.0000 -5.7626 -21.9071 12.5358 -4.9884 7.1250 -0.0000 -0.0000 3.7061 -16.5210 2.5045
-0.6223 20.4663 -10.5036 -171.2460 4.0958 -182.5110 0.0000 0.0000 0.0000 -5.0291 -4.8810 -38.9166 14.4199 19.2365 73.4829 -0.0134 -5.5871 7.5608 0.2959 3.4976 9.6672 0.0000 0.0000 0.0000 32.3321 -4.2065 5.0399 -0.8444 -5.8611 16.3821 -0.3999 6.9947 -11.5528 -2.2462 -9.3611 26.9317 6.5712 0.4866 7.2924 4.1572 1.6709 4.1289 0.4995 1.1505 0.2316 -8.3017 -3.8435 -11.4153 3.1421 0.7658 39.7990 3.4875 1.1822 16.1916 0.0000 0.0000 0.0000 -91.3175 6.1094 17.1284 13.8133 -22.4671 -2.7563 -0.0000 -0.0000 1.0153 18.1861 20.7047 6.6251 -7.1250 0.0000 -0.0000 -10.5026 51.3756 -1.6648 0.0000 0.0000 0.0000 86.6529 -0.7545 12.0090 -11.8586 19.5923 -2.0546 0.0000 -0.0000 -5.9379 -22.0449 12.5820 -5.0410 7.1250 -0.0000 -0.0000 3.6126 -16.4581 2.4460
-0.6202 20.4451 -10.5560 -171.3290 4.1823 -182.5620 0.0000 0.0000 0.0000 -4.9814 -4.8446 -39.6899 14.3375 19.2132 73.2327 -0.0197 -5.8421 7.7494 0.2915 3.4720 9.5957 0.0000 0.0000 0.0000 32.2086 -4.7390 5.4954 -0.8117 -5.7495 16.0594 -0.4210 6.9935 -11.8199 -1.7697 -8.3690 23.8406 6.6149 0.5586 7.3866 4.0670 1.7701 4.0910 0.3721 1.1945 0.1486 -8.3437 -3.8499 -11.0613 3.1282 0.7473 39.6552 3.4724 1.1782 16.0313 -0.0000 -0.0000 0.0000 -91.2971 6.1245 16.8186 13.4761 -21.9809 -2.6288 -0.0000 -0.0000 0.9997 18.1697 20.1485 6.4498 -7.1250 0.0000 -0.0000 -10.3212 50.8084 -1.4908 -0.0000 -0.0000 0.0000 86.7387 -0.8074 11.8373 -11.8952 19.6473 -2.0669 0.0000 -0.0000 -5.7543 -21.9834 12.7692 -5.0987 7.1250 -0.0000 -0.0000 3.6632 -16.2644 2.4958
-0.6128 20.4210 -10.6110 -171.2100 4.3399 -182.5940 0.0000 0.0000 0.0000 -4.7752 -4.5842 -40.4330 14.1765 19.1667 72.7427 -0.0388 -6.3813 8.0074 0.1652 2.6186 7.2187 0.0000 0.0000 0.0000 32.3784 -4.9659 5.9596 -0.7997 -5.7078 15.9390 -0.4690 6.8058 -12.3793 -1.2423 -7.0673 19.9150 6.6861 0.6067 7.3508 4.1040 1.8430 4.2073 0.3699 1.2435 0.2931 -8.2642 -3.8638 -11.3821 3.0755 0.7117 39.6810 3.4332 1.1515 16.1252 0.0000 0.0000 0.0000 -91.4128 6.0534 16.3119 13.2866 -21.7058 -2.5583 -0.0000 -0.0000 1.1999 18.1602 20.0373 6.4124 -7.1250 0.0000 -0.0000 -10.2918 50.6939 -1.4573 0.0000 0.0000 0.0000 86.6796 -0.6970 11.8886 -12.0088 19.8178 -2.1053 0.0000 -0.0000 -5.5663 -21.9588 13.4802 -5.3693 7.1250 -0.0000 -0.0000 3.7122 -15.5087 2.5900
-0.6012 20.4446 -10.6698 -171.3250 4.4119 -182.7470 0.0000 0.0000 0.0000 -4.8940 -4.3769 -40.6755 13.8781 19.0767 71.8320 -0.0527 -6.8443 8.3513 0.1275 2.3020 6.3410 0.0000 0.0000 0.0000 32.3237 -4.4366 6.4384 -0.7692 -5.6005 15.6295 -0.4636 6.7689 -12.3073 -1.6455 -8.0849 22.9723 6.4758 0.6005 7.4361 4.0938 1.8279 4.2644 0.4756 1.2344 0.2978 -8.2499 -3.9285 -11.6198 3.0762 0.6105 39.7678 3.4221 1.1009 16.2376 0.0000 0.0000 0.0000 -91.5911 6.0658 15.3149 13.1634 -21.5262 -2.5129 -0.0000 -0.0000 2.5459 16.9742 20.8456 6.1991 -7.1250 0.0000 -0.0000 -11.7400 51.3145 -1.8476 0.0000 0.0000 0.0000 86.6211 -0.7176 12.0604 -12.1436 20.0197 -2.1512 0.0000 -0.0000 -5.6160 -21.9932 13.5374 -5.4008 7.1250 -0.0000 -0.0000 3.6913 -15.4440 2.5805
-0.5941 20.4706 -10.7291 -171.2640 4.4067 -182.7900 0.0000 0.0000 0.0000 -4.8161 -4.2502 -40.9632 13.5328 18.9662 70.7724 -0.0536 -7.1632 8.8566 0.1189 2.2226 6.1213 0.0000 0.0000 0.0000 32.4410 -3.7531 6.5258 -0.7650 -5.5853 15.5859 -0.4538 6.7405 -12.1836 -2.2253 -9.3205 26.8030 6.6269 0.6103 7.4391 4.0681 1.8501 4.2272 0.3631 1.2456 0.2644 -8.2235 -3.8648 -11.1792 2.9965 0.7800 39.7685 3.4080 1.1935 16.1183 0.0000 0.0000 0.0000 -91.5991 6.2173 14.8357 13.0141 -21.3079 -2.4584 -0.0000 -0.0000 3.5543 15.8621 21.4572 5.9341 -7.1250 0.0000 -0.0000 -13.0654 51.7386 -2.1993 0.0000 0.0000 0.0000 86.5976 -0.7146 12.4345 -12.1826 20.0779 -2.1646 0.0000 -0.0000 -6.3531 -22.1395 12.9802 -5.2216 7.1250 -0.0000 -0.0000 3.5647 -16.0235 2.4470
-0.5933 20.4390 -10.7849 -171.0720 4.4637 -182.7800 0.0000 0.0000 0.0000 -4.5450 -4.2399 -41.4899 13.2310 18.8640 69.8413 -0.0224 -7.1267 9.6245 0.1290 2.3150 6.3772 0.0000 0.0000 0.0000 32.6601 -3.9453 6.7041 -0.7831 -5.6496 15.7711 -0.4993 6.7758 -12.7388 -1.9405 -8.7410 24.9884 6.9970 0.6629 7.3516 4.0322 1.9369 4.2416 0.1187 1.2992 0.3460 -8.1055 -3.9059 -11.3077 2.9391 0.7882 39.9765 3.3815 1.2173 16.2602 -0.0000 0.0000 0.0000 -91.4821 6.3191 15.2834 12.7244 -20.8821 -2.3542 -0.0000 -0.0000 2.5414 16.5296 21.0593 6.0871 -7.1250 0.0000 -0.0000 -12.2557 51.4544 -1.9732 -0.0000 0.0000 0.0000 86.6135 -0.5816 12.5685 -12.1460 20.0232 -2.1520 0.0000 -0.0000 -6.7956 -22.2327 12.8865 -5.2088 7.1250 -0.0000 -0.0000 3.4960 -16.1140 2.3929
-0.5914 20.4186 -10.8437 -171.1080 4.4738 -182.8950 0.0000 0.0000 0.0000 -4.5820 -4.3367 -41.7175 12.8922 18.7429 68.7904 0.0058 -7.0627 10.2082 0.1256 2.2848 6.2933 0.0000 0.0000 0.0000 32.5813 -4.3133 7.2301 -0.7763 -5.6257 15.7021 -0.5472 6.8573 -13.3075 -1.7359 -8.2929 23.6073 7.0336 0.6579 7.3619 3.9528 1.9268 4.2652 0.0173 1.2949 0.3687 -8.0634 -3.8499 -11.0909 3.0101 0.8202 39.8955 3.4027 1.2542 16.1581 -0.0000 -0.0000 0.0000 -91.4526 6.4227 15.2774 12.4700 -20.5057 -2.2642 -0.0000 -0.0000 1.9617 16.8779 21.0707 6.2252 -7.1250 0.0000 -0.0000 -11.9200 51.5243 -1.9385 -0.0000 -0.0000 0.0000 86.6689 -0.5335 12.3818 -12.1587 20.0422 -2.1564 0.0000 -0.0000 -6.2872 -22.1219 13.2706 -5.3310 7.1250 -0.0000 -0.0000 3.5903 -15.7152 2.4886
-0.5871 20.4034 -10.9057 -171.1420 4.4591 -183.0800 0.0000 0.0000 0.0000 -4.6533 -4.3368 -41.7792 12.5389 18.6093 67.6870 -0.0053 -7.4395 10.4899 0.0583 1.5574 4.2841 0.0000 0.0000 0.0000 32.4926 -4.8092 7.9274 -0.7328 -5.4690 15.2512 -0.5828 6.8003 -13.7025 -1.4061 -7.5006 21.2073 6.9415 0.5926 7.4236 3.9621 1.8452 4.3707 0.0840 1.2611 0.4363 -8.1190 -3.8577 -11.2530 3.0193 0.8558 40.0303 3.4338 1.2592 16.2688 -0.0000 -0.0000 0.0000 -91.5840 6.4481 14.8248 12.3380 -20.3095 -2.2182 -0.0000 -0.0000 2.3949 16.6992 21.9967 6.4112 -7.1250 0.0000 -0.0000 -12.4650 52.4201 -2.3057 -0.0000 -0.0000 0.0000 86.5276 -0.4123 12.9645 -12.2817 20.2258 -2.1987 0.0000 -0.0000 -6.5399 -22.0658 13.0592 -5.2334 7.1250 -0.0000 -0.0000 3.6191 -15.9466 2.4906
-0.5820 20.3836 -10.9657 -171.1330 4.6192 -183.0650 0.0000 0.0000 0.0000 -4.6201 -4.1545 -42.0316 12.1555 18.4556 66.4808 0.0116 -7.5422 11.0056 0.0401 1.2927 3.5545 0.0000 0.0000 0.0000 32.5082 -4.8819 8.4400 -0.6927 -5.3204 14.8248 -0.6092 6.6839 -13.9829 -1.1484 -6.8045 19.1376 6.8847 0.6247 7.3208 4.0063 1.8778 4.4685 0.1645 1.2858 0.5928 -8.2303 -3.9426 -11.6830 3.0548 0.8403 40.3656 3.4973 1.2357 16.5620 0.0000 0.0000 0.0000 -91.7309 6.4917 14.7153 12.2897 -20.2376 -2.2015 -0.0000 -0.0000 2.5758 16.7278 23.2082 6.7544 -7.1250 0.0000 -0.0000 -12.9567 53.6319 -2.7865 0.0000 0.0000 0.0000 86.3030 -0.4138 13.9737 -12.5840 20.6747 -2.3043 0.0000 -0.0000 -7.5648 -21.8948 12.5545 -4.9926 7.1250 -0.0000 -0.0000 3.7154 -16.5023 2.5123
-0.5812 20.3351 -11.0217 -171.0200 4.8450 -183.0350 0.0000 0.0000 0.0000 -4.4175 -3.9681 -42.3686 11.7545 18.2849 65.2086 0.0841 -7.1169 11.8996 0.0873 1.9056 5.2448 0.0000 0.0000 0.0000 32.6768 -4.9899 8.9311 -0.6721 -5.2426 14.6019 -0.6723 6.2607 -14.6337 -0.6797 -5.2714 14.6844 6.9980 0.7131 7.2746 4.0090 1.9983 4.4864 0.0991 1.3505 0.6469 -8.3323 -3.9673 -11.5467 3.2575 0.7146 40.2691 3.5763 1.1950 16.4830 0.0000 0.0000 0.0000 -91.7515 6.4073 14.3879 12.0767 -19.9196 -2.1284 -0.0000 -0.0000 3.0303 16.6649 23.5772 6.8277 -7.1250 0.0000 -0.0000 -13.1869 53.9867 -2.9525 0.0000 0.0000 0.0000 86.3030 -0.5141 14.2409 -12.8638 21.0874 -2.4041 0.0000 -0.0000 -7.9333 -21.7958 12.4448 -4.9253 7.1250 -0.0000 -0.0000 3.7796 -16.6288 2.5456
